<svg xmlns="http://www.w3.org/2000/svg" xmlns:xlink="http://www.w3.org/1999/xlink" width="200" zoomAndPan="magnify" viewBox="0 0 150 30.000001" height="40" preserveAspectRatio="xMidYMid meet" version="1.0"><defs><g/></defs><g fill="#7f96ff" fill-opacity="0.4"><g transform="translate(5.14447, 24.870534)"><g><path d="M 10.421875 -20.71875 C 11.109375 -18.894531 11.734375 -17.117188 12.296875 -15.390625 C 12.859375 -13.671875 13.359375 -11.957031 13.796875 -10.25 C 14.242188 -8.539062 14.644531 -6.804688 15 -5.046875 C 15.363281 -3.285156 15.707031 -1.46875 16.03125 0.40625 L 12.78125 1 C 12.625 0.09375 12.441406 -0.878906 12.234375 -1.921875 C 12.035156 -2.960938 11.816406 -4.046875 11.578125 -5.171875 C 10.535156 -5.003906 9.484375 -4.867188 8.421875 -4.765625 C 7.367188 -4.660156 6.296875 -4.582031 5.203125 -4.53125 C 4.941406 -3.644531 4.707031 -2.800781 4.5 -2 C 4.300781 -1.195312 4.132812 -0.476562 4 0.15625 L 0.765625 -0.515625 C 1.191406 -2.390625 1.648438 -4.160156 2.140625 -5.828125 C 2.640625 -7.492188 3.179688 -9.140625 3.765625 -10.765625 C 4.347656 -12.398438 4.976562 -14.03125 5.65625 -15.65625 C 6.34375 -17.289062 7.085938 -19.003906 7.890625 -20.796875 Z M 10.890625 -8.296875 C 10.597656 -9.628906 10.289062 -10.945312 9.96875 -12.25 C 9.65625 -13.5625 9.3125 -14.859375 8.9375 -16.140625 C 8.476562 -14.859375 8.007812 -13.488281 7.53125 -12.03125 C 7.050781 -10.582031 6.582031 -9.125 6.125 -7.65625 C 6.925781 -7.726562 7.726562 -7.816406 8.53125 -7.921875 C 9.332031 -8.035156 10.117188 -8.160156 10.890625 -8.296875 Z M 10.890625 -8.296875 "/></g></g></g><g fill="#7f96ff" fill-opacity="0.4"><g transform="translate(19.604688, 24.870534)"><g><path d="M 5.375 -11.453125 C 5.34375 -11.242188 5.316406 -11.050781 5.296875 -10.875 C 5.285156 -10.695312 5.28125 -10.503906 5.28125 -10.296875 C 5.738281 -10.535156 6.21875 -10.703125 6.71875 -10.796875 C 7.226562 -10.890625 7.753906 -10.9375 8.296875 -10.9375 C 9.660156 -10.9375 10.800781 -10.492188 11.71875 -9.609375 C 12.632812 -8.734375 13.160156 -7.535156 13.296875 -6.015625 C 13.328125 -5.609375 13.347656 -5.128906 13.359375 -4.578125 C 13.367188 -4.035156 13.367188 -3.460938 13.359375 -2.859375 C 13.347656 -2.265625 13.320312 -1.660156 13.28125 -1.046875 C 13.238281 -0.429688 13.175781 0.15625 13.09375 0.71875 L 9.734375 0.6875 C 9.785156 0.257812 9.820312 -0.21875 9.84375 -0.75 C 9.875 -1.289062 9.898438 -1.828125 9.921875 -2.359375 C 9.953125 -2.898438 9.96875 -3.421875 9.96875 -3.921875 C 9.96875 -4.429688 9.957031 -4.875 9.9375 -5.25 C 9.882812 -6.257812 9.625 -6.972656 9.15625 -7.390625 C 8.6875 -7.804688 8.066406 -8.015625 7.296875 -8.015625 C 6.492188 -8.015625 5.769531 -7.851562 5.125 -7.53125 C 4.988281 -4.75 4.988281 -2 5.125 0.71875 L 1.796875 0.6875 C 1.796875 -0.46875 1.816406 -1.550781 1.859375 -2.5625 C 1.898438 -3.582031 1.957031 -4.582031 2.03125 -5.5625 C 2.113281 -6.550781 2.21875 -7.539062 2.34375 -8.53125 C 2.46875 -9.519531 2.609375 -10.5625 2.765625 -11.65625 Z M 5.375 -11.453125 "/></g></g></g><g fill="#7f96ff" fill-opacity="0.4"><g transform="translate(32.062067, 24.870534)"><g><path d="M 5.8125 -14.109375 C 5.539062 -11.671875 5.335938 -9.265625 5.203125 -6.890625 C 5.066406 -4.515625 5 -2.140625 5 0.234375 L 1.6875 0.203125 C 1.757812 -2.253906 1.929688 -4.675781 2.203125 -7.0625 C 2.472656 -9.457031 2.804688 -11.867188 3.203125 -14.296875 Z M 7.328125 -18.421875 C 7.328125 -17.867188 7.132812 -17.363281 6.75 -16.90625 C 6.363281 -16.445312 5.820312 -16.21875 5.125 -16.21875 C 4.4375 -16.21875 3.894531 -16.445312 3.5 -16.90625 C 3.113281 -17.363281 2.921875 -17.867188 2.921875 -18.421875 C 2.921875 -19.015625 3.113281 -19.53125 3.5 -19.96875 C 3.894531 -20.40625 4.4375 -20.625 5.125 -20.625 C 5.820312 -20.625 6.363281 -20.40625 6.75 -19.96875 C 7.132812 -19.53125 7.328125 -19.015625 7.328125 -18.421875 Z M 7.328125 -18.421875 "/></g></g></g><g fill="#7f96ff" fill-opacity="0.4"><g transform="translate(38.110385, 24.870534)"><g><path d="M 5.375 -11.859375 C 5.34375 -11.640625 5.316406 -11.410156 5.296875 -11.171875 C 5.285156 -10.929688 5.28125 -10.707031 5.28125 -10.5 C 6.03125 -10.875 6.898438 -11.019531 7.890625 -10.9375 C 8.503906 -10.851562 9.082031 -10.691406 9.625 -10.453125 C 10.175781 -10.210938 10.65625 -9.867188 11.0625 -9.421875 C 11.625 -10.035156 12.25 -10.460938 12.9375 -10.703125 C 13.632812 -10.941406 14.359375 -11.019531 15.109375 -10.9375 C 16.335938 -10.800781 17.378906 -10.316406 18.234375 -9.484375 C 19.085938 -8.660156 19.578125 -7.367188 19.703125 -5.609375 C 19.765625 -4.773438 19.78125 -3.859375 19.75 -2.859375 C 19.71875 -1.859375 19.640625 -0.796875 19.515625 0.328125 L 16.140625 0.28125 C 16.253906 -0.570312 16.320312 -1.445312 16.34375 -2.34375 C 16.375 -3.238281 16.375 -4.070312 16.34375 -4.84375 C 16.320312 -5.457031 16.242188 -5.960938 16.109375 -6.359375 C 15.972656 -6.765625 15.796875 -7.085938 15.578125 -7.328125 C 15.367188 -7.566406 15.132812 -7.734375 14.875 -7.828125 C 14.625 -7.921875 14.367188 -7.984375 14.109375 -8.015625 C 13.804688 -8.035156 13.488281 -8.023438 13.15625 -7.984375 C 12.820312 -7.953125 12.46875 -7.84375 12.09375 -7.65625 C 12.28125 -7.113281 12.414062 -6.429688 12.5 -5.609375 C 12.550781 -4.773438 12.5625 -3.859375 12.53125 -2.859375 C 12.507812 -1.859375 12.429688 -0.796875 12.296875 0.328125 L 8.9375 0.28125 C 9.039062 -0.570312 9.101562 -1.445312 9.125 -2.34375 C 9.15625 -3.238281 9.160156 -4.070312 9.140625 -4.84375 C 9.109375 -5.457031 9.023438 -5.960938 8.890625 -6.359375 C 8.753906 -6.765625 8.578125 -7.085938 8.359375 -7.328125 C 8.148438 -7.566406 7.921875 -7.734375 7.671875 -7.828125 C 7.421875 -7.921875 7.160156 -7.984375 6.890625 -8.015625 C 6.648438 -8.035156 6.375 -8.03125 6.0625 -8 C 5.757812 -7.976562 5.445312 -7.898438 5.125 -7.765625 C 5.019531 -5.046875 5.019531 -2.347656 5.125 0.328125 L 1.796875 0.28125 C 1.796875 -0.863281 1.816406 -1.941406 1.859375 -2.953125 C 1.898438 -3.972656 1.957031 -4.976562 2.03125 -5.96875 C 2.113281 -6.957031 2.21875 -7.945312 2.34375 -8.9375 C 2.46875 -9.925781 2.609375 -10.96875 2.765625 -12.0625 Z M 5.375 -11.859375 "/></g></g></g><g fill="#7f96ff" fill-opacity="0.4"><g transform="translate(57.377391, 24.870534)"><g><path d="M 7.015625 0.40625 C 5.378906 0.40625 4.066406 -0.0859375 3.078125 -1.078125 C 2.097656 -2.066406 1.609375 -3.363281 1.609375 -4.96875 C 1.609375 -5.851562 1.742188 -6.628906 2.015625 -7.296875 C 2.296875 -7.960938 2.675781 -8.519531 3.15625 -8.96875 C 3.644531 -9.425781 4.210938 -9.769531 4.859375 -10 C 5.515625 -10.226562 6.21875 -10.34375 6.96875 -10.34375 C 7.582031 -10.34375 8.175781 -10.25 8.75 -10.0625 C 9.320312 -9.875 9.835938 -9.59375 10.296875 -9.21875 L 10.53125 -11.015625 L 13.09375 -10.8125 C 12.96875 -8.8125 12.875 -6.890625 12.8125 -5.046875 C 12.757812 -3.203125 12.773438 -1.28125 12.859375 0.71875 L 9.609375 0.6875 L 9.609375 -0.28125 C 9.210938 -0.0390625 8.785156 0.128906 8.328125 0.234375 C 7.878906 0.347656 7.441406 0.40625 7.015625 0.40625 Z M 7.328125 -2.359375 C 8.046875 -2.359375 8.597656 -2.539062 8.984375 -2.90625 C 9.378906 -3.269531 9.613281 -3.753906 9.6875 -4.359375 L 9.8125 -5.28125 C 9.894531 -5.925781 9.675781 -6.46875 9.15625 -6.90625 C 8.632812 -7.351562 7.972656 -7.578125 7.171875 -7.578125 C 6.472656 -7.578125 5.882812 -7.351562 5.40625 -6.90625 C 4.925781 -6.46875 4.6875 -5.820312 4.6875 -4.96875 C 4.6875 -4.113281 4.929688 -3.460938 5.421875 -3.015625 C 5.921875 -2.578125 6.554688 -2.359375 7.328125 -2.359375 Z M 7.328125 -2.359375 "/></g></g></g><g fill="#7f96ff" fill-opacity="0.4"><g transform="translate(70.035058, 24.870534)"><g><path d="M 10.703125 -8.859375 C 9.785156 -8.742188 8.96875 -8.664062 8.25 -8.625 C 7.53125 -8.59375 6.820312 -8.578125 6.125 -8.578125 C 6.019531 -7.585938 5.929688 -6.617188 5.859375 -5.671875 C 5.796875 -4.722656 5.738281 -3.820312 5.6875 -2.96875 C 5.632812 -2.425781 5.765625 -1.96875 6.078125 -1.59375 C 6.398438 -1.226562 6.953125 -1.019531 7.734375 -0.96875 C 8.316406 -0.9375 8.957031 -0.9375 9.65625 -0.96875 L 9.375 1.96875 C 9.082031 1.988281 8.738281 1.992188 8.34375 1.984375 C 7.957031 1.972656 7.617188 1.941406 7.328125 1.890625 C 6.453125 1.773438 5.695312 1.582031 5.0625 1.3125 C 4.4375 1.050781 3.9375 0.664062 3.5625 0.15625 C 3.1875 -0.34375 2.9375 -0.976562 2.8125 -1.75 C 2.695312 -2.53125 2.707031 -3.484375 2.84375 -4.609375 C 2.894531 -5.035156 2.953125 -5.601562 3.015625 -6.3125 C 3.085938 -7.019531 3.175781 -7.8125 3.28125 -8.6875 C 2.90625 -8.71875 2.515625 -8.742188 2.109375 -8.765625 C 1.710938 -8.796875 1.289062 -8.835938 0.84375 -8.890625 L 0.921875 -11.453125 C 1.429688 -11.429688 1.898438 -11.421875 2.328125 -11.421875 C 2.753906 -11.421875 3.179688 -11.421875 3.609375 -11.421875 C 3.742188 -12.703125 3.875 -13.988281 4 -15.28125 C 4.132812 -16.582031 4.253906 -17.789062 4.359375 -18.90625 L 7.015625 -18.703125 C 6.960938 -17.585938 6.890625 -16.421875 6.796875 -15.203125 C 6.703125 -13.984375 6.585938 -12.734375 6.453125 -11.453125 C 7.085938 -11.503906 7.742188 -11.5625 8.421875 -11.625 C 9.109375 -11.695312 9.851562 -11.800781 10.65625 -11.9375 Z M 10.703125 -8.859375 "/></g></g></g><g fill="#7f96ff" fill-opacity="0.4"><g transform="translate(79.287911, 24.870534)"><g><path d="M 5.8125 -14.109375 C 5.539062 -11.671875 5.335938 -9.265625 5.203125 -6.890625 C 5.066406 -4.515625 5 -2.140625 5 0.234375 L 1.6875 0.203125 C 1.757812 -2.253906 1.929688 -4.675781 2.203125 -7.0625 C 2.472656 -9.457031 2.804688 -11.867188 3.203125 -14.296875 Z M 7.328125 -18.421875 C 7.328125 -17.867188 7.132812 -17.363281 6.75 -16.90625 C 6.363281 -16.445312 5.820312 -16.21875 5.125 -16.21875 C 4.4375 -16.21875 3.894531 -16.445312 3.5 -16.90625 C 3.113281 -17.363281 2.921875 -17.867188 2.921875 -18.421875 C 2.921875 -19.015625 3.113281 -19.53125 3.5 -19.96875 C 3.894531 -20.40625 4.4375 -20.625 5.125 -20.625 C 5.820312 -20.625 6.363281 -20.40625 6.75 -19.96875 C 7.132812 -19.53125 7.328125 -19.015625 7.328125 -18.421875 Z M 7.328125 -18.421875 "/></g></g></g><g fill="#7f96ff" fill-opacity="0.4"><g transform="translate(85.336229, 24.870534)"><g><path d="M 7.40625 -1.4375 C 8.289062 -1.4375 8.976562 -1.707031 9.46875 -2.25 C 9.96875 -2.800781 10.21875 -3.476562 10.21875 -4.28125 C 10.21875 -5.082031 9.96875 -5.753906 9.46875 -6.296875 C 8.976562 -6.847656 8.289062 -7.125 7.40625 -7.125 C 6.53125 -7.125 5.84375 -6.847656 5.34375 -6.296875 C 4.851562 -5.753906 4.609375 -5.082031 4.609375 -4.28125 C 4.609375 -3.476562 4.851562 -2.800781 5.34375 -2.25 C 5.84375 -1.707031 6.53125 -1.4375 7.40625 -1.4375 Z M 7.40625 1.328125 C 6.550781 1.328125 5.765625 1.1875 5.046875 0.90625 C 4.328125 0.625 3.707031 0.238281 3.1875 -0.25 C 2.664062 -0.75 2.253906 -1.34375 1.953125 -2.03125 C 1.660156 -2.726562 1.515625 -3.476562 1.515625 -4.28125 C 1.515625 -5.082031 1.660156 -5.832031 1.953125 -6.53125 C 2.253906 -7.226562 2.664062 -7.820312 3.1875 -8.3125 C 3.707031 -8.800781 4.328125 -9.1875 5.046875 -9.46875 C 5.765625 -9.75 6.550781 -9.890625 7.40625 -9.890625 C 8.257812 -9.890625 9.046875 -9.75 9.765625 -9.46875 C 10.492188 -9.1875 11.117188 -8.800781 11.640625 -8.3125 C 12.160156 -7.820312 12.566406 -7.226562 12.859375 -6.53125 C 13.148438 -5.832031 13.296875 -5.082031 13.296875 -4.28125 C 13.296875 -3.476562 13.148438 -2.726562 12.859375 -2.03125 C 12.566406 -1.34375 12.160156 -0.75 11.640625 -0.25 C 11.117188 0.238281 10.492188 0.625 9.765625 0.90625 C 9.046875 1.1875 8.257812 1.328125 7.40625 1.328125 Z M 7.40625 1.328125 "/></g></g></g><g fill="#7f96ff" fill-opacity="0.4"><g transform="translate(97.793607, 24.870534)"><g><path d="M 5.375 -11.453125 C 5.34375 -11.242188 5.316406 -11.050781 5.296875 -10.875 C 5.285156 -10.695312 5.28125 -10.503906 5.28125 -10.296875 C 5.738281 -10.535156 6.21875 -10.703125 6.71875 -10.796875 C 7.226562 -10.890625 7.753906 -10.9375 8.296875 -10.9375 C 9.660156 -10.9375 10.800781 -10.492188 11.71875 -9.609375 C 12.632812 -8.734375 13.160156 -7.535156 13.296875 -6.015625 C 13.328125 -5.609375 13.347656 -5.128906 13.359375 -4.578125 C 13.367188 -4.035156 13.367188 -3.460938 13.359375 -2.859375 C 13.347656 -2.265625 13.320312 -1.660156 13.28125 -1.046875 C 13.238281 -0.429688 13.175781 0.15625 13.09375 0.71875 L 9.734375 0.6875 C 9.785156 0.257812 9.820312 -0.21875 9.84375 -0.75 C 9.875 -1.289062 9.898438 -1.828125 9.921875 -2.359375 C 9.953125 -2.898438 9.96875 -3.421875 9.96875 -3.921875 C 9.96875 -4.429688 9.957031 -4.875 9.9375 -5.25 C 9.882812 -6.257812 9.625 -6.972656 9.15625 -7.390625 C 8.6875 -7.804688 8.066406 -8.015625 7.296875 -8.015625 C 6.492188 -8.015625 5.769531 -7.851562 5.125 -7.53125 C 4.988281 -4.75 4.988281 -2 5.125 0.71875 L 1.796875 0.6875 C 1.796875 -0.46875 1.816406 -1.550781 1.859375 -2.5625 C 1.898438 -3.582031 1.957031 -4.582031 2.03125 -5.5625 C 2.113281 -6.550781 2.21875 -7.539062 2.34375 -8.53125 C 2.46875 -9.519531 2.609375 -10.5625 2.765625 -11.65625 Z M 5.375 -11.453125 "/></g></g></g><g fill="#7f96ff" fill-opacity="0.4"><g transform="translate(110.250984, 24.870534)"><g/></g></g><g fill="#7f96ff" fill-opacity="0.4"><g transform="translate(119.103278, 24.870534)"><g><path d="M 9.609375 -2.328125 C 10.523438 -2.328125 11.25 -2.625 11.78125 -3.21875 C 12.3125 -3.820312 12.722656 -4.796875 13.015625 -6.140625 C 13.316406 -7.492188 13.507812 -9.257812 13.59375 -11.4375 C 13.6875 -13.613281 13.75 -16.289062 13.78125 -19.46875 L 17.265625 -19.4375 C 17.160156 -15.882812 17.019531 -12.832031 16.84375 -10.28125 C 16.664062 -7.726562 16.320312 -5.625 15.8125 -3.96875 C 15.3125 -2.3125 14.578125 -1.085938 13.609375 -0.296875 C 12.648438 0.484375 11.316406 0.875 9.609375 0.875 C 7.898438 0.875 6.566406 0.503906 5.609375 -0.234375 C 4.648438 -0.984375 3.914062 -2.160156 3.40625 -3.765625 C 2.894531 -5.367188 2.550781 -7.425781 2.375 -9.9375 C 2.207031 -12.445312 2.070312 -15.476562 1.96875 -19.03125 L 5.453125 -19.0625 C 5.472656 -15.882812 5.53125 -13.226562 5.625 -11.09375 C 5.71875 -8.957031 5.910156 -7.238281 6.203125 -5.9375 C 6.503906 -4.644531 6.921875 -3.71875 7.453125 -3.15625 C 7.984375 -2.601562 8.703125 -2.328125 9.609375 -2.328125 Z M 9.609375 -2.328125 "/></g></g></g><g fill="#7f96ff" fill-opacity="0.4"><g transform="translate(135.966894, 24.870534)"><g><path d="M 10.859375 -18.234375 C 10.453125 -18.203125 10.039062 -18.175781 9.625 -18.15625 C 9.21875 -18.144531 8.8125 -18.128906 8.40625 -18.109375 C 8.351562 -15.253906 8.179688 -12.523438 7.890625 -9.921875 C 7.597656 -7.316406 7.171875 -4.582031 6.609375 -1.71875 C 7.515625 -1.75 8.410156 -1.832031 9.296875 -1.96875 L 9.25 1 C 7.945312 1.082031 6.640625 1.125 5.328125 1.125 C 4.015625 1.125 2.742188 1.054688 1.515625 0.921875 L 1.484375 -1.640625 C 1.859375 -1.617188 2.234375 -1.597656 2.609375 -1.578125 C 2.984375 -1.566406 3.367188 -1.578125 3.765625 -1.609375 C 4.085938 -4.515625 4.367188 -7.347656 4.609375 -10.109375 C 4.847656 -12.878906 5.007812 -15.554688 5.09375 -18.140625 C 4.738281 -18.171875 4.398438 -18.191406 4.078125 -18.203125 C 3.765625 -18.222656 3.445312 -18.257812 3.125 -18.3125 L 3.078125 -20.875 C 4.304688 -20.820312 5.585938 -20.828125 6.921875 -20.890625 C 8.265625 -20.960938 9.585938 -21.0625 10.890625 -21.1875 Z M 10.859375 -18.234375 "/></g></g></g><g fill="#1d77ff" fill-opacity="1"><g transform="translate(3.374027, 23.100093)"><g><path d="M 10.421875 -20.71875 C 11.109375 -18.894531 11.734375 -17.117188 12.296875 -15.390625 C 12.859375 -13.671875 13.359375 -11.957031 13.796875 -10.25 C 14.242188 -8.539062 14.644531 -6.804688 15 -5.046875 C 15.363281 -3.285156 15.707031 -1.46875 16.03125 0.40625 L 12.78125 1 C 12.625 0.09375 12.441406 -0.878906 12.234375 -1.921875 C 12.035156 -2.960938 11.816406 -4.046875 11.578125 -5.171875 C 10.535156 -5.003906 9.484375 -4.867188 8.421875 -4.765625 C 7.367188 -4.660156 6.296875 -4.582031 5.203125 -4.53125 C 4.941406 -3.644531 4.707031 -2.800781 4.5 -2 C 4.300781 -1.195312 4.132812 -0.476562 4 0.15625 L 0.765625 -0.515625 C 1.191406 -2.390625 1.648438 -4.160156 2.140625 -5.828125 C 2.640625 -7.492188 3.179688 -9.140625 3.765625 -10.765625 C 4.347656 -12.398438 4.976562 -14.03125 5.65625 -15.65625 C 6.34375 -17.289062 7.085938 -19.003906 7.890625 -20.796875 Z M 10.890625 -8.296875 C 10.597656 -9.628906 10.289062 -10.945312 9.96875 -12.25 C 9.65625 -13.5625 9.3125 -14.859375 8.9375 -16.140625 C 8.476562 -14.859375 8.007812 -13.488281 7.53125 -12.03125 C 7.050781 -10.582031 6.582031 -9.125 6.125 -7.65625 C 6.925781 -7.726562 7.726562 -7.816406 8.53125 -7.921875 C 9.332031 -8.035156 10.117188 -8.160156 10.890625 -8.296875 Z M 10.890625 -8.296875 "/></g></g></g><g fill="#1d77ff" fill-opacity="1"><g transform="translate(17.834245, 23.100093)"><g><path d="M 5.375 -11.453125 C 5.34375 -11.242188 5.316406 -11.050781 5.296875 -10.875 C 5.285156 -10.695312 5.28125 -10.503906 5.28125 -10.296875 C 5.738281 -10.535156 6.21875 -10.703125 6.71875 -10.796875 C 7.226562 -10.890625 7.753906 -10.9375 8.296875 -10.9375 C 9.660156 -10.9375 10.800781 -10.492188 11.71875 -9.609375 C 12.632812 -8.734375 13.160156 -7.535156 13.296875 -6.015625 C 13.328125 -5.609375 13.347656 -5.128906 13.359375 -4.578125 C 13.367188 -4.035156 13.367188 -3.460938 13.359375 -2.859375 C 13.347656 -2.265625 13.320312 -1.660156 13.28125 -1.046875 C 13.238281 -0.429688 13.175781 0.15625 13.09375 0.71875 L 9.734375 0.6875 C 9.785156 0.257812 9.820312 -0.21875 9.84375 -0.75 C 9.875 -1.289062 9.898438 -1.828125 9.921875 -2.359375 C 9.953125 -2.898438 9.96875 -3.421875 9.96875 -3.921875 C 9.96875 -4.429688 9.957031 -4.875 9.9375 -5.25 C 9.882812 -6.257812 9.625 -6.972656 9.15625 -7.390625 C 8.6875 -7.804688 8.066406 -8.015625 7.296875 -8.015625 C 6.492188 -8.015625 5.769531 -7.851562 5.125 -7.53125 C 4.988281 -4.75 4.988281 -2 5.125 0.71875 L 1.796875 0.6875 C 1.796875 -0.46875 1.816406 -1.550781 1.859375 -2.5625 C 1.898438 -3.582031 1.957031 -4.582031 2.03125 -5.5625 C 2.113281 -6.550781 2.21875 -7.539062 2.34375 -8.53125 C 2.46875 -9.519531 2.609375 -10.5625 2.765625 -11.65625 Z M 5.375 -11.453125 "/></g></g></g><g fill="#1d77ff" fill-opacity="1"><g transform="translate(30.291624, 23.100093)"><g><path d="M 5.8125 -14.109375 C 5.539062 -11.671875 5.335938 -9.265625 5.203125 -6.890625 C 5.066406 -4.515625 5 -2.140625 5 0.234375 L 1.6875 0.203125 C 1.757812 -2.253906 1.929688 -4.675781 2.203125 -7.0625 C 2.472656 -9.457031 2.804688 -11.867188 3.203125 -14.296875 Z M 7.328125 -18.421875 C 7.328125 -17.867188 7.132812 -17.363281 6.75 -16.90625 C 6.363281 -16.445312 5.820312 -16.21875 5.125 -16.21875 C 4.4375 -16.21875 3.894531 -16.445312 3.5 -16.90625 C 3.113281 -17.363281 2.921875 -17.867188 2.921875 -18.421875 C 2.921875 -19.015625 3.113281 -19.53125 3.5 -19.96875 C 3.894531 -20.40625 4.4375 -20.625 5.125 -20.625 C 5.820312 -20.625 6.363281 -20.40625 6.75 -19.96875 C 7.132812 -19.53125 7.328125 -19.015625 7.328125 -18.421875 Z M 7.328125 -18.421875 "/></g></g></g><g fill="#1d77ff" fill-opacity="1"><g transform="translate(36.339942, 23.100093)"><g><path d="M 5.375 -11.859375 C 5.34375 -11.640625 5.316406 -11.410156 5.296875 -11.171875 C 5.285156 -10.929688 5.28125 -10.707031 5.28125 -10.5 C 6.03125 -10.875 6.898438 -11.019531 7.890625 -10.9375 C 8.503906 -10.851562 9.082031 -10.691406 9.625 -10.453125 C 10.175781 -10.210938 10.65625 -9.867188 11.0625 -9.421875 C 11.625 -10.035156 12.25 -10.460938 12.9375 -10.703125 C 13.632812 -10.941406 14.359375 -11.019531 15.109375 -10.9375 C 16.335938 -10.800781 17.378906 -10.316406 18.234375 -9.484375 C 19.085938 -8.660156 19.578125 -7.367188 19.703125 -5.609375 C 19.765625 -4.773438 19.78125 -3.859375 19.75 -2.859375 C 19.71875 -1.859375 19.640625 -0.796875 19.515625 0.328125 L 16.140625 0.28125 C 16.253906 -0.570312 16.320312 -1.445312 16.34375 -2.34375 C 16.375 -3.238281 16.375 -4.070312 16.34375 -4.84375 C 16.320312 -5.457031 16.242188 -5.960938 16.109375 -6.359375 C 15.972656 -6.765625 15.796875 -7.085938 15.578125 -7.328125 C 15.367188 -7.566406 15.132812 -7.734375 14.875 -7.828125 C 14.625 -7.921875 14.367188 -7.984375 14.109375 -8.015625 C 13.804688 -8.035156 13.488281 -8.023438 13.15625 -7.984375 C 12.820312 -7.953125 12.46875 -7.84375 12.09375 -7.65625 C 12.28125 -7.113281 12.414062 -6.429688 12.5 -5.609375 C 12.550781 -4.773438 12.5625 -3.859375 12.53125 -2.859375 C 12.507812 -1.859375 12.429688 -0.796875 12.296875 0.328125 L 8.9375 0.28125 C 9.039062 -0.570312 9.101562 -1.445312 9.125 -2.34375 C 9.15625 -3.238281 9.160156 -4.070312 9.140625 -4.84375 C 9.109375 -5.457031 9.023438 -5.960938 8.890625 -6.359375 C 8.753906 -6.765625 8.578125 -7.085938 8.359375 -7.328125 C 8.148438 -7.566406 7.921875 -7.734375 7.671875 -7.828125 C 7.421875 -7.921875 7.160156 -7.984375 6.890625 -8.015625 C 6.648438 -8.035156 6.375 -8.03125 6.0625 -8 C 5.757812 -7.976562 5.445312 -7.898438 5.125 -7.765625 C 5.019531 -5.046875 5.019531 -2.347656 5.125 0.328125 L 1.796875 0.28125 C 1.796875 -0.863281 1.816406 -1.941406 1.859375 -2.953125 C 1.898438 -3.972656 1.957031 -4.976562 2.03125 -5.96875 C 2.113281 -6.957031 2.21875 -7.945312 2.34375 -8.9375 C 2.46875 -9.925781 2.609375 -10.96875 2.765625 -12.0625 Z M 5.375 -11.859375 "/></g></g></g><g fill="#1d77ff" fill-opacity="1"><g transform="translate(55.606948, 23.100093)"><g><path d="M 7.015625 0.40625 C 5.378906 0.40625 4.066406 -0.0859375 3.078125 -1.078125 C 2.097656 -2.066406 1.609375 -3.363281 1.609375 -4.96875 C 1.609375 -5.851562 1.742188 -6.628906 2.015625 -7.296875 C 2.296875 -7.960938 2.675781 -8.519531 3.15625 -8.96875 C 3.644531 -9.425781 4.210938 -9.769531 4.859375 -10 C 5.515625 -10.226562 6.21875 -10.34375 6.96875 -10.34375 C 7.582031 -10.34375 8.175781 -10.25 8.75 -10.0625 C 9.320312 -9.875 9.835938 -9.59375 10.296875 -9.21875 L 10.53125 -11.015625 L 13.09375 -10.8125 C 12.96875 -8.8125 12.875 -6.890625 12.8125 -5.046875 C 12.757812 -3.203125 12.773438 -1.28125 12.859375 0.71875 L 9.609375 0.6875 L 9.609375 -0.28125 C 9.210938 -0.0390625 8.785156 0.128906 8.328125 0.234375 C 7.878906 0.347656 7.441406 0.40625 7.015625 0.40625 Z M 7.328125 -2.359375 C 8.046875 -2.359375 8.597656 -2.539062 8.984375 -2.90625 C 9.378906 -3.269531 9.613281 -3.753906 9.6875 -4.359375 L 9.8125 -5.28125 C 9.894531 -5.925781 9.675781 -6.46875 9.15625 -6.90625 C 8.632812 -7.351562 7.972656 -7.578125 7.171875 -7.578125 C 6.472656 -7.578125 5.882812 -7.351562 5.40625 -6.90625 C 4.925781 -6.46875 4.6875 -5.820312 4.6875 -4.96875 C 4.6875 -4.113281 4.929688 -3.460938 5.421875 -3.015625 C 5.921875 -2.578125 6.554688 -2.359375 7.328125 -2.359375 Z M 7.328125 -2.359375 "/></g></g></g><g fill="#1d77ff" fill-opacity="1"><g transform="translate(68.264615, 23.100093)"><g><path d="M 10.703125 -8.859375 C 9.785156 -8.742188 8.96875 -8.664062 8.25 -8.625 C 7.53125 -8.59375 6.820312 -8.578125 6.125 -8.578125 C 6.019531 -7.585938 5.929688 -6.617188 5.859375 -5.671875 C 5.796875 -4.722656 5.738281 -3.820312 5.6875 -2.96875 C 5.632812 -2.425781 5.765625 -1.96875 6.078125 -1.59375 C 6.398438 -1.226562 6.953125 -1.019531 7.734375 -0.96875 C 8.316406 -0.9375 8.957031 -0.9375 9.65625 -0.96875 L 9.375 1.96875 C 9.082031 1.988281 8.738281 1.992188 8.34375 1.984375 C 7.957031 1.972656 7.617188 1.941406 7.328125 1.890625 C 6.453125 1.773438 5.695312 1.582031 5.0625 1.3125 C 4.4375 1.050781 3.9375 0.664062 3.5625 0.15625 C 3.1875 -0.34375 2.9375 -0.976562 2.8125 -1.75 C 2.695312 -2.53125 2.707031 -3.484375 2.84375 -4.609375 C 2.894531 -5.035156 2.953125 -5.601562 3.015625 -6.3125 C 3.085938 -7.019531 3.175781 -7.8125 3.28125 -8.6875 C 2.90625 -8.71875 2.515625 -8.742188 2.109375 -8.765625 C 1.710938 -8.796875 1.289062 -8.835938 0.84375 -8.890625 L 0.921875 -11.453125 C 1.429688 -11.429688 1.898438 -11.421875 2.328125 -11.421875 C 2.753906 -11.421875 3.179688 -11.421875 3.609375 -11.421875 C 3.742188 -12.703125 3.875 -13.988281 4 -15.28125 C 4.132812 -16.582031 4.253906 -17.789062 4.359375 -18.90625 L 7.015625 -18.703125 C 6.960938 -17.585938 6.890625 -16.421875 6.796875 -15.203125 C 6.703125 -13.984375 6.585938 -12.734375 6.453125 -11.453125 C 7.085938 -11.503906 7.742188 -11.5625 8.421875 -11.625 C 9.109375 -11.695312 9.851562 -11.800781 10.65625 -11.9375 Z M 10.703125 -8.859375 "/></g></g></g><g fill="#1d77ff" fill-opacity="1"><g transform="translate(77.517468, 23.100093)"><g><path d="M 5.8125 -14.109375 C 5.539062 -11.671875 5.335938 -9.265625 5.203125 -6.890625 C 5.066406 -4.515625 5 -2.140625 5 0.234375 L 1.6875 0.203125 C 1.757812 -2.253906 1.929688 -4.675781 2.203125 -7.0625 C 2.472656 -9.457031 2.804688 -11.867188 3.203125 -14.296875 Z M 7.328125 -18.421875 C 7.328125 -17.867188 7.132812 -17.363281 6.75 -16.90625 C 6.363281 -16.445312 5.820312 -16.21875 5.125 -16.21875 C 4.4375 -16.21875 3.894531 -16.445312 3.5 -16.90625 C 3.113281 -17.363281 2.921875 -17.867188 2.921875 -18.421875 C 2.921875 -19.015625 3.113281 -19.53125 3.5 -19.96875 C 3.894531 -20.40625 4.4375 -20.625 5.125 -20.625 C 5.820312 -20.625 6.363281 -20.40625 6.75 -19.96875 C 7.132812 -19.53125 7.328125 -19.015625 7.328125 -18.421875 Z M 7.328125 -18.421875 "/></g></g></g><g fill="#1d77ff" fill-opacity="1"><g transform="translate(83.565786, 23.100093)"><g><path d="M 7.40625 -1.4375 C 8.289062 -1.4375 8.976562 -1.707031 9.46875 -2.25 C 9.96875 -2.800781 10.21875 -3.476562 10.21875 -4.28125 C 10.21875 -5.082031 9.96875 -5.753906 9.46875 -6.296875 C 8.976562 -6.847656 8.289062 -7.125 7.40625 -7.125 C 6.53125 -7.125 5.84375 -6.847656 5.34375 -6.296875 C 4.851562 -5.753906 4.609375 -5.082031 4.609375 -4.28125 C 4.609375 -3.476562 4.851562 -2.800781 5.34375 -2.25 C 5.84375 -1.707031 6.53125 -1.4375 7.40625 -1.4375 Z M 7.40625 1.328125 C 6.550781 1.328125 5.765625 1.1875 5.046875 0.90625 C 4.328125 0.625 3.707031 0.238281 3.1875 -0.25 C 2.664062 -0.75 2.253906 -1.34375 1.953125 -2.03125 C 1.660156 -2.726562 1.515625 -3.476562 1.515625 -4.28125 C 1.515625 -5.082031 1.660156 -5.832031 1.953125 -6.53125 C 2.253906 -7.226562 2.664062 -7.820312 3.1875 -8.3125 C 3.707031 -8.800781 4.328125 -9.1875 5.046875 -9.46875 C 5.765625 -9.75 6.550781 -9.890625 7.40625 -9.890625 C 8.257812 -9.890625 9.046875 -9.75 9.765625 -9.46875 C 10.492188 -9.1875 11.117188 -8.800781 11.640625 -8.3125 C 12.160156 -7.820312 12.566406 -7.226562 12.859375 -6.53125 C 13.148438 -5.832031 13.296875 -5.082031 13.296875 -4.28125 C 13.296875 -3.476562 13.148438 -2.726562 12.859375 -2.03125 C 12.566406 -1.34375 12.160156 -0.75 11.640625 -0.25 C 11.117188 0.238281 10.492188 0.625 9.765625 0.90625 C 9.046875 1.1875 8.257812 1.328125 7.40625 1.328125 Z M 7.40625 1.328125 "/></g></g></g><g fill="#1d77ff" fill-opacity="1"><g transform="translate(96.023164, 23.100093)"><g><path d="M 5.375 -11.453125 C 5.34375 -11.242188 5.316406 -11.050781 5.296875 -10.875 C 5.285156 -10.695312 5.28125 -10.503906 5.28125 -10.296875 C 5.738281 -10.535156 6.21875 -10.703125 6.71875 -10.796875 C 7.226562 -10.890625 7.753906 -10.9375 8.296875 -10.9375 C 9.660156 -10.9375 10.800781 -10.492188 11.71875 -9.609375 C 12.632812 -8.734375 13.160156 -7.535156 13.296875 -6.015625 C 13.328125 -5.609375 13.347656 -5.128906 13.359375 -4.578125 C 13.367188 -4.035156 13.367188 -3.460938 13.359375 -2.859375 C 13.347656 -2.265625 13.320312 -1.660156 13.28125 -1.046875 C 13.238281 -0.429688 13.175781 0.15625 13.09375 0.71875 L 9.734375 0.6875 C 9.785156 0.257812 9.820312 -0.21875 9.84375 -0.75 C 9.875 -1.289062 9.898438 -1.828125 9.921875 -2.359375 C 9.953125 -2.898438 9.96875 -3.421875 9.96875 -3.921875 C 9.96875 -4.429688 9.957031 -4.875 9.9375 -5.25 C 9.882812 -6.257812 9.625 -6.972656 9.15625 -7.390625 C 8.6875 -7.804688 8.066406 -8.015625 7.296875 -8.015625 C 6.492188 -8.015625 5.769531 -7.851562 5.125 -7.53125 C 4.988281 -4.75 4.988281 -2 5.125 0.71875 L 1.796875 0.6875 C 1.796875 -0.46875 1.816406 -1.550781 1.859375 -2.5625 C 1.898438 -3.582031 1.957031 -4.582031 2.03125 -5.5625 C 2.113281 -6.550781 2.21875 -7.539062 2.34375 -8.53125 C 2.46875 -9.519531 2.609375 -10.5625 2.765625 -11.65625 Z M 5.375 -11.453125 "/></g></g></g><g fill="#1d77ff" fill-opacity="1"><g transform="translate(108.480542, 23.100093)"><g/></g></g><g fill="#1d77ff" fill-opacity="1"><g transform="translate(117.332835, 23.100093)"><g><path d="M 9.609375 -2.328125 C 10.523438 -2.328125 11.25 -2.625 11.78125 -3.21875 C 12.3125 -3.820312 12.722656 -4.796875 13.015625 -6.140625 C 13.316406 -7.492188 13.507812 -9.257812 13.59375 -11.4375 C 13.6875 -13.613281 13.75 -16.289062 13.78125 -19.46875 L 17.265625 -19.4375 C 17.160156 -15.882812 17.019531 -12.832031 16.84375 -10.28125 C 16.664062 -7.726562 16.320312 -5.625 15.8125 -3.96875 C 15.3125 -2.3125 14.578125 -1.085938 13.609375 -0.296875 C 12.648438 0.484375 11.316406 0.875 9.609375 0.875 C 7.898438 0.875 6.566406 0.503906 5.609375 -0.234375 C 4.648438 -0.984375 3.914062 -2.160156 3.40625 -3.765625 C 2.894531 -5.367188 2.550781 -7.425781 2.375 -9.9375 C 2.207031 -12.445312 2.070312 -15.476562 1.96875 -19.03125 L 5.453125 -19.0625 C 5.472656 -15.882812 5.53125 -13.226562 5.625 -11.09375 C 5.71875 -8.957031 5.910156 -7.238281 6.203125 -5.9375 C 6.503906 -4.644531 6.921875 -3.71875 7.453125 -3.15625 C 7.984375 -2.601562 8.703125 -2.328125 9.609375 -2.328125 Z M 9.609375 -2.328125 "/></g></g></g><g fill="#1d77ff" fill-opacity="1"><g transform="translate(134.196452, 23.100093)"><g><path d="M 10.859375 -18.234375 C 10.453125 -18.203125 10.039062 -18.175781 9.625 -18.15625 C 9.21875 -18.144531 8.8125 -18.128906 8.40625 -18.109375 C 8.351562 -15.253906 8.179688 -12.523438 7.890625 -9.921875 C 7.597656 -7.316406 7.171875 -4.582031 6.609375 -1.71875 C 7.515625 -1.75 8.410156 -1.832031 9.296875 -1.96875 L 9.25 1 C 7.945312 1.082031 6.640625 1.125 5.328125 1.125 C 4.015625 1.125 2.742188 1.054688 1.515625 0.921875 L 1.484375 -1.640625 C 1.859375 -1.617188 2.234375 -1.597656 2.609375 -1.578125 C 2.984375 -1.566406 3.367188 -1.578125 3.765625 -1.609375 C 4.085938 -4.515625 4.367188 -7.347656 4.609375 -10.109375 C 4.847656 -12.878906 5.007812 -15.554688 5.09375 -18.140625 C 4.738281 -18.171875 4.398438 -18.191406 4.078125 -18.203125 C 3.765625 -18.222656 3.445312 -18.257812 3.125 -18.3125 L 3.078125 -20.875 C 4.304688 -20.820312 5.585938 -20.828125 6.921875 -20.890625 C 8.265625 -20.960938 9.585938 -21.0625 10.890625 -21.1875 Z M 10.859375 -18.234375 "/></g></g></g></svg>